<svg xmlns="http://www.w3.org/2000/svg" version="1.1" xmlns:xlink="http://www.w3.org/1999/xlink" xmlns:svgjs="http://svgjs.dev/svgjs" width="128" height="128" viewBox="0 0 128 128"><g transform="matrix(0.44206008583690987,0,0,0.44206008583690987,35.6164946006483,12.760752631578939)"><svg viewBox="0 0 52 95" data-background-color="#ffffff" preserveAspectRatio="xMidYMid meet" height="233" width="128" xmlns="http://www.w3.org/2000/svg" xmlns:xlink="http://www.w3.org/1999/xlink"><g id="tight-bounds" transform="matrix(1,0,0,1,0.08423478599402756,-0.24049999999999727)"><svg viewBox="0 0 51.831530428011945 95.481" height="95.481" width="51.831530428011945"><g><svg viewBox="0 0 51.831530428011945 95.481" height="95.481" width="51.831530428011945"><g><svg viewBox="0 0 51.831530428011945 95.481" height="95.481" width="51.831530428011945"><g id="textblocktransform"><svg viewBox="0 0 51.831530428011945 95.481" height="95.481" width="51.831530428011945" id="textblock"><g><svg viewBox="0 0 51.831530428011945 95.481" height="95.481" width="51.831530428011945"><g><svg viewBox="0 0 51.831530428011945 95.481" height="95.481" width="51.831530428011945"><g><svg xmlns="http://www.w3.org/2000/svg" xmlns:xlink="http://www.w3.org/1999/xlink" version="1.1" x="0" y="0" viewBox="23.02753923342925 2 49.94459585707355 92.00500000000001" enable-background="new 0 0 96 96" xml:space="preserve" height="95.481" width="51.831530428011945" class="icon-icon-0" data-fill-palette-color="accent" id="icon-0"><path d="M72.5 90.712c-2.824-3.353-7.916-9.624-13.256-17.288-0.712 1.252-1.46 2.508-2.204 3.756 0.017 0.021 0.032 0.041 0.048 0.061-1.48 2.52-3.027 5.052-4.64 7.588-0.021-0.032-0.04-0.057-0.064-0.084-0.76 1.195-1.516 2.384-2.304 3.584 0.859 1.111 1.704 2.176 2.516 3.199l1.368 1.717c0.38 0.48 0.96 0.76 1.572 0.76h15.437c0.775 0 1.483-0.452 1.812-1.156C73.111 92.145 73.008 91.305 72.5 90.712L72.5 90.712z" fill="#4b39ef" data-fill-palette-color="accent"></path><path d="M51.523 78.648c6.58-10.713 11.949-21.256 16.097-31.552 0.724-2.072 1.38-4.092 1.896-6.06 0.881-3.336 1.424-6.564 1.672-9.644 0.101-1.084 0.164-2.132 0.164-3.144 0-0.056-0.023-0.1-0.031-0.164 0.052-7.416-1.813-13.868-5.584-18.756C61.889 4.328 56.24 2 47.96 2c-8.28 0-13.928 2.328-17.78 7.328-5.832 7.576-7.172 18.836-3.776 31.716C28.396 48.588 32 56.952 36.98 65.896c0.844-1.345 1.632-2.681 2.412-4.013-0.004-0.004-0.004-0.012-0.008-0.02 2.38-3.968 4.844-8.421 6.612-13.009-1.816-3.952-3.104-7.543-4.12-11.396-1.456-5.524-2.112-13.328 0.84-17.156 1.192-1.556 2.908-2.3 5.248-2.3 2.341 0 4.06 0.752 5.248 2.3 2.328 3.024 2.404 8.516 1.612 13.416-0.152 0.872-0.404 1.856-0.612 2.813l0.024 0.008c-0.045 0.216-0.125 0.444-0.172 0.664-0.084 0.316-0.112 0.58-0.205 0.908-0.092 0.36-0.215 0.704-0.319 1.056-2.032 7.884-5.916 16.664-11.248 25.637-0.232 0.411-0.416 0.791-0.652 1.207-0.012-0.023-0.02-0.044-0.032-0.063-3.644 6.008-7.892 12.056-12.66 17.936-2.216 2.841-4.148 5.196-5.524 6.828-0.028 0.036-0.024 0.084-0.052 0.116-0.176 0.244-0.288 0.5-0.344 0.775C23.012 91.691 23.408 94 24.952 94h15.44c0.312 0 0.612-0.084 0.884-0.216 0.076-0.04 0.128-0.112 0.2-0.16 0.1-0.067 0.188-0.151 0.284-0.231 3.448-4.889 6.688-9.752 9.664-14.584C51.456 78.756 51.488 78.704 51.523 78.648L51.523 78.648z" fill="#4b39ef" data-fill-palette-color="accent"></path></svg></g></svg></g></svg></g></svg></g></svg></g></svg></g><defs></defs></svg><rect width="51.831530428011945" height="95.481" fill="none" stroke="none" visibility="hidden"></rect></g></svg></g></svg>