<?xml version="1.0" encoding="utf-8"?>
<!-- Generator: Adobe Illustrator 28.1.0, SVG Export Plug-In . SVG Version: 6.00 Build 0)  -->
<svg version="1.1" id="Layer_2_00000159430504739605291520000008541179031575023519_"
	 xmlns="http://www.w3.org/2000/svg" xmlns:xlink="http://www.w3.org/1999/xlink" x="0px" y="0px" viewBox="0 0 125.8 52.3"
	 height="66" width="170" style="enable-background:new 0 0 125.8 52.3;" xml:space="preserve">
<style type="text/css">
	.st0{fill:#D63934;}
	.st1{fill:#23428F;}
	.st2{fill:#6D6E71;}
</style>
<g>
	<polygon class="st0" points="100.2,23.5 100.2,48.1 111.4,15.6 	"/>
	<polygon class="st1" points="86,13.7 98.9,18.3 119,4.3 	"/>
	<path class="st2" d="M13.1,21.9l-0.3,1.4c0,0.1-0.1,0.2-0.3,0.2h-1.6l-1.1,6.1c0,0.1-0.1,0.2-0.3,0.2H7.8c-0.1,0-0.2-0.1-0.2-0.2v0
		l1.1-6.1H7c-0.1,0-0.2-0.1-0.2-0.2v0l0.3-1.4c0-0.1,0.1-0.2,0.3-0.2h5.6C13,21.7,13.1,21.8,13.1,21.9L13.1,21.9L13.1,21.9z"/>
	<path class="st2" d="M20.7,21.9l-0.9,4.9C19.4,29.3,18.2,30,16,30c-1.3,0-2.8-0.7-2.8-2.6c0-0.2,0-0.4,0.1-0.7l0.8-4.7
		c0-0.1,0.2-0.2,0.3-0.2h1.8c0.1,0,0.2,0.1,0.2,0.2v0l-0.9,4.9c0,0.2-0.1,0.4-0.1,0.5c0,0.6,0.3,0.8,0.9,0.8c0.8,0,1.2-0.3,1.3-1.3
		l0.9-4.9c0-0.1,0.1-0.2,0.3-0.2h1.8C20.7,21.7,20.7,21.8,20.7,21.9C20.7,21.9,20.7,21.9,20.7,21.9z M17.4,19.8l-0.2,1.1
		c0,0.1-0.2,0.2-0.3,0.2h-1.3c-0.1,0-0.2-0.1-0.2-0.2v0l0.2-1.1c0-0.1,0.2-0.2,0.3-0.2h1.3C17.3,19.6,17.4,19.6,17.4,19.8L17.4,19.8
		L17.4,19.8z M20,19.8l-0.2,1.1c0,0.1-0.2,0.2-0.3,0.2h-1.3c-0.1,0-0.2-0.1-0.2-0.2v0l0.2-1.1c0-0.1,0.2-0.2,0.3-0.2h1.3
		C19.9,19.6,20,19.6,20,19.8L20,19.8L20,19.8z"/>
	<path class="st2" d="M26.4,26.6l1.1,3c0,0,0,0.1,0,0.1c0,0.1-0.1,0.2-0.2,0.2h-1.9c-0.1,0-0.1-0.1-0.2-0.2L24.2,27
		c-0.2,0-0.5,0-0.7,0L23,29.6c0,0.1-0.1,0.2-0.3,0.2H21c-0.1,0-0.2-0.1-0.2-0.2v0l1.3-7.2c0.1-0.5,0.3-0.6,0.8-0.7
		c0.5-0.1,1.3-0.1,2.3-0.1c1.8,0,3.1,0.6,3.1,2.1C28.2,25,27.7,26.1,26.4,26.6 M25,23.5c-0.3,0-0.7,0-0.9,0l-0.3,1.8
		c0.1,0,0.3,0,0.4,0h0.4c0.9,0,1.3-0.3,1.3-1.2C26,23.6,25.7,23.5,25,23.5"/>
	<path class="st2" d="M36.8,21.9l-3.1,3.8l1.7,3.9c0,0,0,0.1,0,0.1c0,0.1-0.1,0.2-0.2,0.2h-2.2c-0.1,0-0.2-0.1-0.2-0.2l-1.4-3.6
		l-0.6,3.6c0,0.1-0.1,0.2-0.3,0.2h-1.8c-0.1,0-0.2-0.1-0.2-0.2v0l1.4-7.8c0-0.1,0.1-0.2,0.3-0.2h1.8c0.1,0,0.2,0.1,0.2,0.2v0
		l-0.6,3.4l2.7-3.5c0.1-0.1,0.2-0.2,0.3-0.2h2.2c0.1,0,0.1,0,0.1,0.1C36.9,21.8,36.9,21.9,36.8,21.9"/>
	<path class="st2" d="M44.7,21.9l-1.4,7.8c0,0.1-0.1,0.2-0.3,0.2h-1.8c-0.1,0-0.2-0.1-0.2-0.2v0l0.5-3h-2.3l-0.5,3
		c0,0.1-0.1,0.2-0.3,0.2h-1.8c-0.1,0-0.2-0.1-0.2-0.2v0l1.4-7.8c0-0.1,0.1-0.2,0.3-0.2h1.8c0.1,0,0.2,0.1,0.2,0.2v0l-0.5,2.8h2.3
		l0.5-2.8c0-0.1,0.1-0.2,0.3-0.2h1.8C44.6,21.7,44.7,21.8,44.7,21.9L44.7,21.9L44.7,21.9z"/>
	<path class="st2" d="M51.3,29.9h-1.9c-0.1,0-0.2-0.1-0.2-0.2l0-1.5h-2l-0.6,1.5c0,0.1-0.1,0.2-0.3,0.2h-2c-0.1,0-0.2-0.1-0.2-0.1
		c0,0,0-0.1,0-0.1l2.7-6.7c0.4-1.1,1.3-1.3,2.4-1.3c1,0,1.8,0.2,1.9,1.3l0.3,6.7v0C51.5,29.8,51.4,29.9,51.3,29.9 M49.1,23.6
		c0-0.1,0-0.2-0.1-0.2s-0.1,0.1-0.1,0.2l-1,2.8h1.3L49.1,23.6L49.1,23.6z"/>
	<path class="st2" d="M60.3,21.9l-2.7,6.7c-0.4,1.1-1.3,1.3-2.4,1.3s-1.8-0.2-1.9-1.3l-0.3-6.7v0c0-0.1,0.1-0.2,0.2-0.2h1.9
		c0.1,0,0.2,0.1,0.2,0.2l0.1,6.1c0,0.1,0,0.2,0.1,0.2c0.1,0,0.1-0.1,0.2-0.2l2.2-6.1c0-0.1,0.1-0.2,0.3-0.2h2c0.1,0,0.1,0,0.1,0.1
		C60.3,21.8,60.3,21.9,60.3,21.9"/>
	<path class="st2" d="M66.2,29.9h-1.9c-0.1,0-0.2-0.1-0.2-0.2l0-1.5h-2l-0.6,1.5c0,0.1-0.1,0.2-0.3,0.2h-2c-0.1,0-0.2-0.1-0.2-0.1
		c0,0,0-0.1,0-0.1l2.7-6.7c0.4-1.1,1.3-1.3,2.4-1.3c1.1,0,1.8,0.2,1.9,1.3l0.3,6.7v0C66.4,29.8,66.3,29.9,66.2,29.9 M64,23.6
		c0-0.1,0-0.2-0.1-0.2s-0.1,0.1-0.1,0.2l-1,2.8H64L64,23.6L64,23.6z"/>
	<path class="st2" d="M73.7,22l-0.3,1.4c0,0.1-0.1,0.2-0.2,0.2h0c-0.4,0-0.9-0.1-1.5-0.1c-0.6,0-1.2,0.2-1.4,1.7L70,26.3
		c0,0.3-0.1,0.5-0.1,0.7c0,0.8,0.4,1,0.9,1c0.6,0,1.1-0.1,1.6-0.1h0c0.1,0,0.2,0,0.2,0.2v0.1l-0.3,1.4c0,0.1-0.1,0.2-0.3,0.2
		c-0.3,0.1-0.9,0.2-1.6,0.2c-1.6,0-2.9-0.9-2.9-2.7c0-0.3,0-0.6,0.1-0.9l0.2-1.1c0.5-2.8,1.9-3.6,4-3.6c0.7,0,1.2,0.1,1.5,0.2
		C73.6,21.8,73.7,21.9,73.7,22L73.7,22L73.7,22z"/>
	<path class="st2" d="M77.1,21.9l-1.4,7.8c0,0.1-0.1,0.2-0.3,0.2h-1.8c-0.1,0-0.2-0.1-0.2-0.2l1.4-7.8c0-0.1,0.1-0.2,0.3-0.2h1.8
		C77,21.7,77.1,21.8,77.1,21.9"/>
	<path class="st2" d="M82.2,28.3l-0.2,1.3c0,0.1-0.1,0.2-0.3,0.2c-0.4,0.1-1.2,0.1-1.7,0.1c-1.2,0-2.5-0.4-2.5-1.9
		c0-0.2,0-0.4,0.1-0.6l1-5.6c0-0.1,0.2-0.2,0.3-0.2h1.8c0.1,0,0.2,0.1,0.2,0.2v0l-1,5.6c0,0.1,0,0.1,0,0.2c0,0.3,0.1,0.3,0.5,0.3H82
		C82.1,28.1,82.2,28.1,82.2,28.3C82.2,28.2,82.2,28.3,82.2,28.3z"/>
	<path class="st2" d="M86.5,21.9l-1.4,7.8c0,0.1-0.1,0.2-0.3,0.2h-1.8c-0.1,0-0.2-0.1-0.2-0.2l1.4-7.8c0-0.1,0.1-0.2,0.3-0.2h1.8
		C86.5,21.7,86.5,21.8,86.5,21.9"/>
	<path class="st2" d="M94.8,21.9l-3.1,3.8l1.7,3.9c0,0,0,0.1,0,0.1c0,0.1-0.1,0.2-0.2,0.2h-2.2c-0.1,0-0.2-0.1-0.2-0.2l-1.4-3.6
		l-0.6,3.6c0,0.1-0.1,0.2-0.3,0.2h-1.8c-0.1,0-0.2-0.1-0.2-0.2v0l1.4-7.8c0-0.1,0.1-0.2,0.3-0.2H90c0.1,0,0.2,0.1,0.2,0.2v0
		l-0.6,3.4l2.7-3.5c0.1-0.1,0.2-0.2,0.3-0.2h2.2c0.1,0,0.1,0,0.1,0.1C94.9,21.8,94.8,21.9,94.8,21.9"/>
	<path class="st2" d="M30.1,33.8c0.1,0,0.2,0.1,0.2,0.2L29.4,39c-0.4,2.5-1.7,3.1-3.6,3.1c-1.6,0-2.6-0.7-2.6-2.3
		c0-0.2,0-0.5,0.1-0.8l0.9-4.9c0-0.1,0.1-0.2,0.3-0.2h1.1c0.1,0,0.2,0.1,0.2,0.2L24.9,39c-0.1,0.3-0.1,0.6-0.1,0.8
		c0,0.7,0.3,1,1.3,1c1.2,0,1.6-0.6,1.8-1.8l0.9-4.9c0-0.1,0.1-0.2,0.3-0.2L30.1,33.8L30.1,33.8z"/>
	<path class="st2" d="M31.9,35.1c-0.1,0-0.2-0.1-0.2-0.2l0.2-0.9c0-0.1,0.1-0.2,0.2-0.2h4.5c0.4,0,0.6,0.1,0.5,0.4L37,34.9
		c0,0.2-0.1,0.3-0.2,0.5l-4.3,5.1c0,0.1-0.1,0.1-0.1,0.1c0,0,0,0.1,0.1,0.1h3.4c0.1,0,0.2,0.1,0.2,0.2l-0.2,0.9
		c0,0.2-0.1,0.2-0.3,0.2h-4.8c-0.4,0-0.5-0.1-0.5-0.4l0.1-0.6c0-0.1,0.1-0.3,0.2-0.4l4.4-5.2c0,0,0.1-0.1,0.1-0.1c0,0,0-0.1-0.1-0.1
		H31.9L31.9,35.1z"/>
	<path class="st2" d="M43,42h-1.1c-0.2,0-0.2-0.1-0.2-0.2l-0.1-2.1H39l-0.9,2.1c0,0.1-0.1,0.2-0.2,0.2h-1.2c-0.1,0-0.2-0.1-0.2-0.1
		c0,0,0-0.1,0-0.1l3-6.9c0.5-1,1.1-1.1,1.7-1.1c0.6,0,1.3,0.2,1.3,1.1l0.6,6.9v0C43.3,41.9,43.2,42,43,42 M41.3,35.2
		c0-0.1,0-0.2-0.1-0.2c-0.1,0-0.2,0-0.2,0.2l-1.4,3.3h1.9L41.3,35.2L41.3,35.2z"/>
	<path class="st2" d="M50.5,34.1l-2.3,3.8c-0.3,0.5-0.6,0.7-0.8,0.8l-0.5,3.1c0,0.1-0.1,0.2-0.3,0.2h-1.1c-0.1,0-0.2-0.1-0.2-0.2
		l0.5-3.1c-0.2-0.1-0.4-0.3-0.5-0.8l-1-3.8c0-0.2,0-0.3,0.2-0.3h1.2c0.1,0,0.2,0,0.2,0.2l0.7,3.3c0,0.2,0.1,0.2,0.1,0.2
		c0.1,0,0.1,0,0.2-0.2l1.9-3.3c0.1-0.1,0.2-0.2,0.3-0.2h1.2c0.1,0,0.2,0.1,0.2,0.1C50.5,34,50.5,34,50.5,34.1"/>
	<path class="st2" d="M56.1,33.9c0.1,0,0.2,0.1,0.2,0.2L56.1,35c0,0.1,0,0.2-0.2,0.2c-0.7-0.1-1.4-0.1-2.2-0.1
		c-0.6,0-1.3,0.2-1.3,0.8c0,0.4,0.2,0.6,0.7,0.9l1.2,0.7c0.9,0.6,1.2,1.2,1.2,2c0,1.8-1.5,2.6-3.3,2.6c-0.8,0-1.4-0.1-1.9-0.2
		c-0.1,0-0.2-0.1-0.2-0.2l0.1-0.8c0-0.1,0.1-0.2,0.3-0.2c0.4,0.1,1.5,0.1,1.9,0.1c0.8,0,1.5-0.3,1.5-1c0-0.4-0.2-0.7-0.8-1l-1.3-0.9
		c-0.8-0.5-1-1.2-1-1.9c0-1.8,1.6-2.2,3.2-2.2C54.7,33.7,55.7,33.8,56.1,33.9"/>
	<path class="st2" d="M62.2,42H61c-0.2,0-0.2-0.1-0.2-0.2l-0.1-2.1h-2.5l-0.9,2.1c0,0.1-0.1,0.2-0.2,0.2h-1.2
		c-0.1,0-0.2-0.1-0.2-0.1c0,0,0-0.1,0-0.1l3-6.9c0.5-1,1.1-1.1,1.7-1.1c0.6,0,1.3,0.2,1.3,1.1l0.6,6.9v0C62.4,41.9,62.3,42,62.2,42
		 M60.4,35.2c0-0.1,0-0.2-0.1-0.2c-0.1,0-0.2,0-0.2,0.2l-1.4,3.3h1.9C60.6,38.5,60.4,35.2,60.4,35.2z"/>
	<path class="st2" d="M70.8,33.8c0.1,0,0.2,0,0.2,0.2l-1.3,7.5c0,0.2-0.3,0.4-0.5,0.4h-1c-0.3,0-0.5,0-0.6-0.4l-1.6-5.4
		c0-0.1,0-0.1-0.1-0.1c0,0-0.1,0-0.1,0.1l-1,5.5c0,0.1,0,0.2-0.3,0.2h-0.9c-0.1,0-0.2-0.1-0.2-0.2l1.3-7.5c0-0.2,0.3-0.4,0.5-0.4
		h1.1c0.2,0,0.3,0.1,0.4,0.4l1.7,5.7c0,0.1,0,0.1,0.1,0.1c0,0,0.1,0,0.1-0.1l1-5.8c0-0.1,0.1-0.2,0.2-0.2L70.8,33.8L70.8,33.8z"/>
	<path class="st2" d="M77.2,42H76c-0.2,0-0.2-0.1-0.2-0.2l-0.1-2.1h-2.5l-0.9,2.1c0,0.1-0.1,0.2-0.2,0.2h-1.2
		c-0.1,0-0.2-0.1-0.2-0.1c0,0,0-0.1,0-0.1l3-6.9c0.5-1,1.1-1.1,1.7-1.1c0.6,0,1.3,0.2,1.3,1.1l0.6,6.9v0C77.4,41.9,77.4,42,77.2,42
		 M75.4,35.2c0-0.1,0-0.2-0.1-0.2s-0.2,0-0.2,0.2l-1.4,3.3h1.9L75.4,35.2L75.4,35.2z"/>
	<path class="st2" d="M84.6,34.1l-2.4,3.8c-0.3,0.5-0.6,0.7-0.8,0.8l-0.5,3.1c0,0.1-0.1,0.2-0.3,0.2h-1.1c-0.1,0-0.2-0.1-0.2-0.2
		l0.5-3.1c-0.2-0.1-0.4-0.3-0.5-0.8l-1-3.8c0-0.2,0-0.3,0.2-0.3h1.2c0.1,0,0.2,0,0.2,0.2l0.8,3.3c0,0.2,0.1,0.2,0.1,0.2
		c0.1,0,0.1,0,0.2-0.2L83,34c0.1-0.1,0.2-0.2,0.3-0.2h1.2c0.1,0,0.2,0.1,0.2,0.1C84.7,34,84.7,34,84.6,34.1"/>
	<path class="st2" d="M87.1,33.8c0.2,0,0.2,0.1,0.2,0.2L86,41.8c0,0.1-0.1,0.2-0.3,0.2h-1.1c-0.2,0-0.2-0.1-0.2-0.2l1.4-7.8
		c0-0.1,0.1-0.2,0.3-0.2H87.1L87.1,33.8z M87.7,31.8l-0.2,1c0,0.1-0.1,0.2-0.3,0.2h-1c-0.1,0-0.2-0.1-0.2-0.2v0l0.2-1
		c0-0.1,0.1-0.2,0.3-0.2h1C87.6,31.6,87.7,31.6,87.7,31.8L87.7,31.8L87.7,31.8z"/>
	<path class="st2" d="M90.3,33.8c0.2,0,0.2,0.1,0.2,0.2l-1.4,7.8c0,0.1-0.1,0.2-0.3,0.2h-1.1c-0.2,0-0.2-0.1-0.2-0.2L89,34
		c0-0.1,0.1-0.2,0.3-0.2H90.3L90.3,33.8z M90.9,31.8l-0.2,1c0,0.1-0.1,0.2-0.3,0.2h-1c-0.1,0-0.2-0.1-0.2-0.2v0l0.2-1
		c0-0.1,0.1-0.2,0.3-0.2h1C90.8,31.6,90.9,31.6,90.9,31.8L90.9,31.8L90.9,31.8z"/>
</g>
</svg>
